<svg xmlns="http://www.w3.org/2000/svg" viewBox="12 7.8 145 50">
  <style type="text/css">.cls-0 {fill:#00E0D7;}</style>
  <path class="cls-0" d="m47 18.9h-6.5c-0.6 0-0.5 0.5-0.5 1.1v25.9c0 0.6 0 0.6 0.6 0.6h6.1c0.6 0 0.7-0.3 0.7-0.6v-26.4c0-0.3-0.2-0.6-0.4-0.6z"/>
  <path class="cls-0" d="m35.3 27.5h-6.3c-0.7 0-0.9 0.3-0.9 1v16.8c0 0.6 0.3 0.9 0.7 0.9h6.2c0.5 0 0.8-0.3 0.8-0.8v-16.9c0-0.8-0.2-1-0.5-1z"/>
  <path class="cls-0" d="m23.7 35.9h-5.4c-0.6 0-0.8 0.3-0.8 0.9v8.6c0 0.4 0.3 0.8 0.7 0.8h5.6c0.6 0 0.7-0.4 0.7-0.8v-8.6c0-0.5-0.3-0.9-0.8-0.9z"/>
  <path class="cls-0" d="m56.9 24.5 0.1 17.3h3.7l-0.1-17.4h-3.6l-0.1 0.1zm20.8 4.7c-1.3-0.1-2.6 0.5-3.6 1.9-0.7-1.3-2.1-1.9-3.7-1.9-1.4 0-2.5 0.5-3.4 1.6l-0.1-1.3h-3.2v12.2h3.3v-6.7c0-1.4 1.1-2.6 2.4-2.6s2.1 0.9 2.1 2.3v6.9h3.1v-6.6c0-1.7 1.1-2.6 2.3-2.6s2 0.8 2 2.3v6.9h3.2v-7.8c0-2.8-1.6-4.6-4.4-4.6zm11.3 8.8-2.6-8.5h-3.4l4.4 12.1h3.3l4.7-12.1h-3.2l-3.2 8.5zm12.5-8.8c-3.3 0-5.8 2.4-5.8 6.3 0 3.6 2.3 6.3 5.9 6.3 1.9 0 3.6-0.4 4.9-1.8l-1.7-2.1c-0.8 0.7-1.7 1.1-2.8 1.1-1.4 0-3-0.9-3.1-2.4h8.1c0.3-4.3-1.9-7.3-5.5-7.4zm-2.5 5.1c0.3-1.5 1.2-2.2 2.5-2.2s2.2 0.7 2.5 2.2h-5.1 0.1zm14.9-0.2c-1.3-0.2-1.9-0.3-1.9-1.1s0.6-1.1 1.6-1.1 2.3 0.1 3.6 0.8l1-2.3c-1.4-0.9-3.1-1.2-4.7-1.2-2.9 0-4.7 1.5-4.7 3.8 0 2.6 1.8 3.5 4.4 3.8 1.5 0.3 2.1 0.5 2.1 1.1s-0.5 1.1-1.7 1.1c-2.1 0.1-2.9-0.3-4.2-1l-1.2 2.4c1.2 0.9 3.3 1.3 5.3 1.3 3.3 0 5.1-1.4 5.1-3.8 0-2.6-1.8-3.4-4.6-3.8h-0.1zm12.1 4.8c-0.9 0-1.5-0.6-1.5-2v-4.5h3.5v-3h-3.3v-3.6h-3.3v3.6h-2.2v3h2.2v4.5c0 3.4 1.4 4.9 4 4.9 1.7 0 2.8-0.3 3.6-0.9l-0.8-2.6c-0.7 0.3-1.3 0.7-2.2 0.7v-0.1zm8-8-0.1-1.4h-2.9v12.1h3v-6.3c0-1.9 1-2.8 2.2-2.8 0.6 0 1.3 0 2.1 0.3l0.4-3.3c-0.4-0.2-1-0.3-1.6-0.3-1.3 0-2.4 0.3-3.1 1.7zm14-1.4-0.1 1.2c-0.6-0.8-1.7-1.5-3.4-1.5-3.1 0-5.5 2.6-5.5 6.3 0 3.6 2.4 6.3 5.5 6.3 1.5 0 2.7-0.4 3.4-1.5l0.2 1.3h2.9v-12.1h-3zm-3 9.4c-1.7 0-2.9-1.3-2.9-3.2 0-1.6 1.2-3.2 2.9-3.2s2.9 1.4 2.9 3.1-0.8 3.3-2.9 3.3z"/>
</svg>
