<svg xmlns="http://www.w3.org/2000/svg" viewBox="41.6 55.7 208.9 40">
  <style type="text/css">.cls-0 {fill:#113DCD;}</style>
  <path class="cls-0" d="m75.8 68h-9.4c-0.6 0-1 0.5-1 1v25.2c0 0.5 0.4 1 1 1h9c0.6 0 1-0.3 1-1v-25.2c0.1-0.5-0.3-1-0.9-1h0.3zm13.8-12.2h-7.4c-0.6 0-1 0.5-1 1v38.1c0 0.5 0.4 0.9 1 0.9h8.8c0.6 0 1.6-0.1 1.6-1.1v-37.9c0-0.5-0.4-1-0.9-1zm-30.3 24.2h-8.6c-0.6 0-0.9 0.5-0.9 1.1v13.2c0 0.6 0.5 1 1.1 1h8.6c0.4 0 0.7-0.4 0.7-1v-12.9c0.1-0.6-0.3-1.4-0.9-1.4z"/>
  <path class="cls-0" d="m112.1 88.6h-5.4v-25h4.9z"/>
  <path class="cls-0" d="m142.6 77.5v11h-4.6v-9.8c0-2.3-1-3.6-3.1-3.6s-3.2 1.5-3.2 3.6v9.8h-4.6v-9.8c0-2.3-1-3.6-3.1-3.6s-3.5 1.5-3.5 3.6v9.8h-4.9v-17.6h4.7v1.8c0.9-1.3 2.7-2.3 4.9-2.3s4.5 0.8 5.4 2.7c1-1.5 3-2.7 5.4-2.7s6.6 0.6 6.6 7.1z"/>
  <path class="cls-0" d="m155.5 88.5h-4.9l-6.7-17.6h5l4.2 12.4 4.6-12.3h4.6z"/>
  <path class="cls-0" d="m179.3 79.8v1.5h-12.1c0.4 2.3 2.2 3.6 4.2 3.6 1.7 0 3.2-0.6 4.2-1.7l2.6 2.8c-1.9 2-4.3 2.8-7.3 2.8-5 0.1-8.7-3.4-8.7-9 0-5.2 3.4-9.3 8.3-9.3 5-0.1 8.8 3.6 8.8 9.3zm-12.2-1.9h7.4c-0.5-1.9-1.6-3.3-3.6-3.3-2-0.1-3.3 1-3.8 3.3z"/>
  <path class="cls-0" d="m193.6 75.8c-1.1-0.7-3-1.3-5-1.3s-2.7 0.5-2.7 1.5 1.2 1.4 2.7 1.5l1.5 0.3c3.5 0.6 5.4 2.2 5.4 5.2 0 3.5-2.5 5.7-7.4 5.7-2 0-5.1-0.3-7.6-1.8l1.7-3.7c1.4 1 3.2 1.7 5.9 1.7 2.1 0 2.8-0.7 2.8-1.5s-0.8-1.3-2.5-1.5l-1.4-0.3c-3.6-0.5-5.9-2.1-5.9-5.3 0-3.5 2.5-5.7 6.8-5.8 2.5 0 5 0.4 7.1 1.6l-1.4 3.7z"/>
  <path class="cls-0" d="m209 75.1h-5v6.5c0 2 0.9 2.9 2.1 2.9s2.3-0.6 2.9-0.9l1.4 3.8c-1.3 0.8-2.9 1.4-4.9 1.4-4.1 0.1-6.6-2.2-6.6-6.7v-7h-3v-4.2h3v-5.4h5.1v5.4h5.1z"/>
  <path class="cls-0" d="m223.9 70.8-0.7 4.8c-0.7-0.2-1.6-0.6-2.7-0.6-1.9 0-3.5 1.1-3.5 3.4v10h-5v-17.5h4.5v2c0.9-1.5 2.5-2.4 4.5-2.4 1.1-0.1 2.1 0 2.9 0.3z"/>
  <path class="cls-0" d="m241.9 88.5h-4.4v-1.7c-1.1 1.2-2.5 2.1-4.9 2.1-4.5 0.2-8.2-3.5-8.4-8.9-0.2-5 3.2-9.5 8.3-9.5 2.1 0 3.6 0.7 4.8 2.1l0.1-1.7h4.5zm-13-8.6c0 2.6 1.7 4.7 4.3 4.7 2.4 0 4.3-1.7 4.3-4.6 0.2-2.5-1.5-4.6-4-5-2.6 0-4.5 1.9-4.6 4.9z"/>
</svg>
